<?xml version="1.0" encoding="utf-8" standalone="no"?>
<!DOCTYPE svg PUBLIC "-//W3C//DTD SVG 1.1//EN"
  "http://www.w3.org/Graphics/SVG/1.1/DTD/svg11.dtd">
<svg xmlns:xlink="http://www.w3.org/1999/xlink" width="576pt" height="432pt" viewBox="0 0 576 432" xmlns="http://www.w3.org/2000/svg" version="1.1">
 <metadata>
  <rdf:RDF xmlns:dc="http://purl.org/dc/elements/1.1/" xmlns:cc="http://creativecommons.org/ns#" xmlns:rdf="http://www.w3.org/1999/02/22-rdf-syntax-ns#">
   <cc:Work>
    <dc:type rdf:resource="http://purl.org/dc/dcmitype/StillImage"/>
    <dc:date>2025-03-23T00:35:07.845231</dc:date>
    <dc:format>image/svg+xml</dc:format>
    <dc:creator>
     <cc:Agent>
      <dc:title>Matplotlib v3.9.2, https://matplotlib.org/</dc:title>
     </cc:Agent>
    </dc:creator>
   </cc:Work>
  </rdf:RDF>
 </metadata>
 <defs>
  <style type="text/css">*{stroke-linejoin: round; stroke-linecap: butt}</style>
 </defs>
 <g id="figure_1">
  <g id="patch_1">
   <path d="M 0 432 
L 576 432 
L 576 0 
L 0 0 
z
" style="fill: #ffffff"/>
  </g>
  <g id="axes_1">
   <g id="patch_2">
    <path d="M 72 384.48 
L 518.4 384.48 
L 518.4 51.84 
L 72 51.84 
z
" style="fill: #ffffff"/>
   </g>
   <g id="matplotlib.axis_1">
    <g id="text_1">
     <!-- Potencial -->
     <g transform="translate(263.434219 399.117813) scale(0.14 -0.14)">
      <defs>
       <path id="DejaVuSans-50" d="M 1259 4147 
L 1259 2394 
L 2053 2394 
Q 2494 2394 2734 2622 
Q 2975 2850 2975 3272 
Q 2975 3691 2734 3919 
Q 2494 4147 2053 4147 
L 1259 4147 
z
M 628 4666 
L 2053 4666 
Q 2838 4666 3239 4311 
Q 3641 3956 3641 3272 
Q 3641 2581 3239 2228 
Q 2838 1875 2053 1875 
L 1259 1875 
L 1259 0 
L 628 0 
L 628 4666 
z
" transform="scale(0.015625)"/>
       <path id="DejaVuSans-6f" d="M 1959 3097 
Q 1497 3097 1228 2736 
Q 959 2375 959 1747 
Q 959 1119 1226 758 
Q 1494 397 1959 397 
Q 2419 397 2687 759 
Q 2956 1122 2956 1747 
Q 2956 2369 2687 2733 
Q 2419 3097 1959 3097 
z
M 1959 3584 
Q 2709 3584 3137 3096 
Q 3566 2609 3566 1747 
Q 3566 888 3137 398 
Q 2709 -91 1959 -91 
Q 1206 -91 779 398 
Q 353 888 353 1747 
Q 353 2609 779 3096 
Q 1206 3584 1959 3584 
z
" transform="scale(0.015625)"/>
       <path id="DejaVuSans-74" d="M 1172 4494 
L 1172 3500 
L 2356 3500 
L 2356 3053 
L 1172 3053 
L 1172 1153 
Q 1172 725 1289 603 
Q 1406 481 1766 481 
L 2356 481 
L 2356 0 
L 1766 0 
Q 1100 0 847 248 
Q 594 497 594 1153 
L 594 3053 
L 172 3053 
L 172 3500 
L 594 3500 
L 594 4494 
L 1172 4494 
z
" transform="scale(0.015625)"/>
       <path id="DejaVuSans-65" d="M 3597 1894 
L 3597 1613 
L 953 1613 
Q 991 1019 1311 708 
Q 1631 397 2203 397 
Q 2534 397 2845 478 
Q 3156 559 3463 722 
L 3463 178 
Q 3153 47 2828 -22 
Q 2503 -91 2169 -91 
Q 1331 -91 842 396 
Q 353 884 353 1716 
Q 353 2575 817 3079 
Q 1281 3584 2069 3584 
Q 2775 3584 3186 3129 
Q 3597 2675 3597 1894 
z
M 3022 2063 
Q 3016 2534 2758 2815 
Q 2500 3097 2075 3097 
Q 1594 3097 1305 2825 
Q 1016 2553 972 2059 
L 3022 2063 
z
" transform="scale(0.015625)"/>
       <path id="DejaVuSans-6e" d="M 3513 2113 
L 3513 0 
L 2938 0 
L 2938 2094 
Q 2938 2591 2744 2837 
Q 2550 3084 2163 3084 
Q 1697 3084 1428 2787 
Q 1159 2491 1159 1978 
L 1159 0 
L 581 0 
L 581 3500 
L 1159 3500 
L 1159 2956 
Q 1366 3272 1645 3428 
Q 1925 3584 2291 3584 
Q 2894 3584 3203 3211 
Q 3513 2838 3513 2113 
z
" transform="scale(0.015625)"/>
       <path id="DejaVuSans-63" d="M 3122 3366 
L 3122 2828 
Q 2878 2963 2633 3030 
Q 2388 3097 2138 3097 
Q 1578 3097 1268 2742 
Q 959 2388 959 1747 
Q 959 1106 1268 751 
Q 1578 397 2138 397 
Q 2388 397 2633 464 
Q 2878 531 3122 666 
L 3122 134 
Q 2881 22 2623 -34 
Q 2366 -91 2075 -91 
Q 1284 -91 818 406 
Q 353 903 353 1747 
Q 353 2603 823 3093 
Q 1294 3584 2113 3584 
Q 2378 3584 2631 3529 
Q 2884 3475 3122 3366 
z
" transform="scale(0.015625)"/>
       <path id="DejaVuSans-69" d="M 603 3500 
L 1178 3500 
L 1178 0 
L 603 0 
L 603 3500 
z
M 603 4863 
L 1178 4863 
L 1178 4134 
L 603 4134 
L 603 4863 
z
" transform="scale(0.015625)"/>
       <path id="DejaVuSans-61" d="M 2194 1759 
Q 1497 1759 1228 1600 
Q 959 1441 959 1056 
Q 959 750 1161 570 
Q 1363 391 1709 391 
Q 2188 391 2477 730 
Q 2766 1069 2766 1631 
L 2766 1759 
L 2194 1759 
z
M 3341 1997 
L 3341 0 
L 2766 0 
L 2766 531 
Q 2569 213 2275 61 
Q 1981 -91 1556 -91 
Q 1019 -91 701 211 
Q 384 513 384 1019 
Q 384 1609 779 1909 
Q 1175 2209 1959 2209 
L 2766 2209 
L 2766 2266 
Q 2766 2663 2505 2880 
Q 2244 3097 1772 3097 
Q 1472 3097 1187 3025 
Q 903 2953 641 2809 
L 641 3341 
Q 956 3463 1253 3523 
Q 1550 3584 1831 3584 
Q 2591 3584 2966 3190 
Q 3341 2797 3341 1997 
z
" transform="scale(0.015625)"/>
       <path id="DejaVuSans-6c" d="M 603 4863 
L 1178 4863 
L 1178 0 
L 603 0 
L 603 4863 
z
" transform="scale(0.015625)"/>
      </defs>
      <use xlink:href="#DejaVuSans-50"/>
      <use xlink:href="#DejaVuSans-6f" x="56.677734"/>
      <use xlink:href="#DejaVuSans-74" x="117.859375"/>
      <use xlink:href="#DejaVuSans-65" x="157.068359"/>
      <use xlink:href="#DejaVuSans-6e" x="218.591797"/>
      <use xlink:href="#DejaVuSans-63" x="281.970703"/>
      <use xlink:href="#DejaVuSans-69" x="336.951172"/>
      <use xlink:href="#DejaVuSans-61" x="364.734375"/>
      <use xlink:href="#DejaVuSans-6c" x="426.013672"/>
     </g>
    </g>
   </g>
   <g id="matplotlib.axis_2">
    <g id="text_2">
     <!-- Corrente -->
     <g transform="translate(65.088437 248.60125) rotate(-90) scale(0.14 -0.14)">
      <defs>
       <path id="DejaVuSans-43" d="M 4122 4306 
L 4122 3641 
Q 3803 3938 3442 4084 
Q 3081 4231 2675 4231 
Q 1875 4231 1450 3742 
Q 1025 3253 1025 2328 
Q 1025 1406 1450 917 
Q 1875 428 2675 428 
Q 3081 428 3442 575 
Q 3803 722 4122 1019 
L 4122 359 
Q 3791 134 3420 21 
Q 3050 -91 2638 -91 
Q 1578 -91 968 557 
Q 359 1206 359 2328 
Q 359 3453 968 4101 
Q 1578 4750 2638 4750 
Q 3056 4750 3426 4639 
Q 3797 4528 4122 4306 
z
" transform="scale(0.015625)"/>
       <path id="DejaVuSans-72" d="M 2631 2963 
Q 2534 3019 2420 3045 
Q 2306 3072 2169 3072 
Q 1681 3072 1420 2755 
Q 1159 2438 1159 1844 
L 1159 0 
L 581 0 
L 581 3500 
L 1159 3500 
L 1159 2956 
Q 1341 3275 1631 3429 
Q 1922 3584 2338 3584 
Q 2397 3584 2469 3576 
Q 2541 3569 2628 3553 
L 2631 2963 
z
" transform="scale(0.015625)"/>
      </defs>
      <use xlink:href="#DejaVuSans-43"/>
      <use xlink:href="#DejaVuSans-6f" x="69.824219"/>
      <use xlink:href="#DejaVuSans-72" x="131.005859"/>
      <use xlink:href="#DejaVuSans-72" x="170.369141"/>
      <use xlink:href="#DejaVuSans-65" x="209.232422"/>
      <use xlink:href="#DejaVuSans-6e" x="270.755859"/>
      <use xlink:href="#DejaVuSans-74" x="334.134766"/>
      <use xlink:href="#DejaVuSans-65" x="373.34375"/>
     </g>
    </g>
   </g>
   <g id="line2d_1">
    <path d="M 92.290909 366.719818 
L 94.730698 365.217427 
L 97.983749 362.876296 
L 105.303115 357.310333 
L 107.742904 355.868007 
L 109.36943 355.147964 
L 110.995956 354.65838 
L 112.622481 354.418709 
L 114.249007 354.435359 
L 115.875533 354.701129 
L 117.502059 355.195832 
L 119.128584 355.888038 
L 121.568373 357.207557 
L 126.44795 360.288749 
L 129.701002 362.214028 
L 132.140791 363.421386 
L 134.580579 364.374545 
L 137.020368 365.067053 
L 139.460157 365.519008 
L 141.899945 365.765816 
L 145.152997 365.845794 
L 150.845837 365.63766 
L 158.165203 364.667746 
L 163.858043 363.69266 
L 168.737621 362.631217 
L 172.803935 361.532756 
L 176.87025 360.184887 
L 180.123301 358.886018 
L 183.376353 357.352263 
L 186.629404 355.543394 
L 189.882456 353.415174 
L 192.322244 351.580709 
L 194.762033 349.51824 
L 197.201822 347.205444 
L 199.64161 344.619342 
L 202.081399 341.736552 
L 204.521188 338.533584 
L 206.960976 334.987196 
L 209.400765 331.074782 
L 211.840554 326.774812 
L 214.280343 322.067314 
L 216.720131 316.934386 
L 219.15992 311.360739 
L 221.599709 305.334256 
L 224.039497 298.846564 
L 227.292549 289.472538 
L 230.5456 279.275959 
L 233.798652 268.278351 
L 237.051703 256.520569 
L 241.118018 240.850308 
L 245.184332 224.258347 
L 250.877173 199.913058 
L 263.889379 143.576078 
L 267.955693 127.204134 
L 271.208745 115.002722 
L 274.461796 103.814434 
L 276.901585 96.202486 
L 279.341374 89.341528 
L 281.781162 83.299676 
L 283.407688 79.757176 
L 285.034214 76.621873 
L 286.66074 73.907954 
L 288.287265 71.627708 
L 289.913791 69.791431 
L 291.540317 68.407347 
L 293.166843 67.481537 
L 294.793369 67.017896 
L 295.606631 66.96 
L 296.419894 67.018099 
L 297.233157 67.192055 
L 298.859683 67.886279 
L 300.486209 69.038777 
L 302.112735 70.643468 
L 303.73926 72.692129 
L 305.365786 75.174463 
L 306.992312 78.078179 
L 308.618838 81.389094 
L 310.245363 85.091235 
L 312.685152 91.339007 
L 315.124941 98.361222 
L 317.564729 106.085499 
L 320.817781 117.341608 
L 324.070833 129.512006 
L 328.137147 145.701786 
L 333.829987 169.477667 
L 344.402405 213.842461 
L 349.281982 233.150081 
L 353.348297 248.241379 
L 356.601348 259.535989 
L 359.8544 270.070425 
L 363.107451 279.803833 
L 366.360503 288.714688 
L 368.800291 294.855001 
L 371.24008 300.534105 
L 373.679869 305.760374 
L 376.119657 310.545923 
L 378.559446 314.906042 
L 380.999235 318.858634 
L 383.439024 322.423669 
L 385.878812 325.622679 
L 388.318601 328.478267 
L 390.75839 331.013679 
L 393.198178 333.252402 
L 395.637967 335.21782 
L 398.077756 336.932911 
L 400.517544 338.419997 
L 402.957333 339.700536 
L 406.210384 341.121771 
L 409.463436 342.257202 
L 412.716488 343.148075 
L 415.969539 343.83152 
L 420.035854 344.444024 
L 421.662379 344.525829 
L 425.728694 344.755767 
L 429.795008 344.760729 
L 433.861323 344.534218 
L 437.927637 344.04741 
L 441.180689 343.437604 
L 444.43374 342.596298 
L 447.686792 341.486907 
L 450.939843 340.074477 
L 453.379632 338.799597 
L 455.819421 337.332841 
L 459.072472 335.081211 
L 462.325524 332.516665 
L 466.391838 328.962315 
L 476.964256 319.41639 
L 479.404044 317.541762 
L 481.843833 315.931066 
L 484.283622 314.642057 
L 485.910148 313.9849 
L 487.536673 313.501874 
L 489.163199 313.200013 
L 490.789725 313.082919 
L 492.416251 313.150645 
L 494.042776 313.399696 
L 495.669302 313.823142 
L 498.109091 314.7623 
L 498.109091 314.7623 
" clip-path="url(#p14f113ff04)" style="fill: none; stroke: #0000ff; stroke-width: 4; stroke-linecap: square"/>
   </g>
   <g id="line2d_2">
    <path d="M 498.109091 314.763377 
L 495.669302 316.372465 
L 493.229514 318.247001 
L 489.976462 321.046246 
L 476.964256 332.724385 
L 473.711204 335.167682 
L 470.458153 337.29111 
L 467.205101 339.085634 
L 463.95205 340.566215 
L 460.698998 341.764408 
L 457.445946 342.721113 
L 453.379632 343.644386 
L 450.12658 344.21607 
L 449.313318 344.906287 
L 362.294188 350.991642 
L 348.468719 351.726518 
L 339.522827 351.995205 
L 332.203461 351.993857 
L 326.510621 351.787133 
L 321.631044 351.416995 
L 316.751467 350.821579 
L 312.685152 350.117128 
L 308.618838 349.190012 
L 304.552523 348.007825 
L 301.299472 346.856673 
L 298.04642 345.505676 
L 294.793369 343.940142 
L 291.540317 342.147212 
L 288.287265 340.116545 
L 285.034214 337.841022 
L 281.781162 335.317468 
L 278.528111 332.547341 
L 274.461796 328.748747 
L 270.395482 324.601907 
L 266.329167 320.148322 
L 261.44959 314.481251 
L 253.316961 304.60575 
L 245.997595 295.820572 
L 241.931281 291.235394 
L 238.678229 287.822358 
L 235.425178 284.701481 
L 232.172126 281.930294 
L 229.732337 280.113572 
L 227.292549 278.543869 
L 224.85276 277.239256 
L 222.412971 276.215266 
L 219.973183 275.484621 
L 217.533394 275.057008 
L 215.093605 274.938907 
L 212.653817 275.133471 
L 210.214028 275.640475 
L 207.774239 276.456317 
L 205.334451 277.574081 
L 202.894662 278.983664 
L 200.454873 280.671957 
L 198.015085 282.62307 
L 195.575296 284.818618 
L 192.322244 288.090423 
L 189.069193 291.706335 
L 185.002878 296.621678 
L 180.123301 302.943502 
L 171.990672 313.975825 
L 164.671306 323.812102 
L 159.791729 330.044448 
L 155.725414 334.935947 
L 151.6591 339.498801 
L 147.592786 343.699031 
L 143.526471 347.517563 
L 140.27342 350.293365 
L 137.020368 352.823567 
L 133.767316 355.11474 
L 130.514265 357.176789 
L 127.261213 359.022239 
L 123.194899 361.046617 
L 119.128584 362.786164 
L 115.06227 364.273246 
L 110.995956 365.540223 
L 106.116378 366.813866 
L 101.236801 367.865406 
L 95.543961 368.870587 
L 92.290909 369.36 
L 92.290909 369.36 
" clip-path="url(#p14f113ff04)" style="fill: none; stroke: #0000ff; stroke-width: 4; stroke-linecap: square"/>
   </g>
   <g id="patch_3">
    <path d="M 72 384.48 
L 72 51.84 
" style="fill: none; stroke: #000000; stroke-width: 0.8; stroke-linejoin: miter; stroke-linecap: square"/>
   </g>
   <g id="patch_4">
    <path d="M 518.4 384.48 
L 518.4 51.84 
" style="fill: none; stroke: #000000; stroke-width: 0.8; stroke-linejoin: miter; stroke-linecap: square"/>
   </g>
   <g id="patch_5">
    <path d="M 72 384.48 
L 518.4 384.48 
" style="fill: none; stroke: #000000; stroke-width: 0.8; stroke-linejoin: miter; stroke-linecap: square"/>
   </g>
   <g id="patch_6">
    <path d="M 72 51.84 
L 518.4 51.84 
" style="fill: none; stroke: #000000; stroke-width: 0.8; stroke-linejoin: miter; stroke-linecap: square"/>
   </g>
  </g>
 </g>
 <defs>
  <clipPath id="p14f113ff04">
   <rect x="72" y="51.84" width="446.4" height="332.64"/>
  </clipPath>
 </defs>
</svg>
